PathFileType	4	(X/Y/Z)	SUBJ94_4_walk_RCNL2025.trc
DataRate	CameraRate	NumFrames	NumMarkers	Units	OrigDataRate	OrigDataStartFrame	OrigNumFrames
100	100	4	25	mm	100	112	297
Frame#	Time	R_Shoulder			L_Shoulder			C7			J_Notch			R_Elbow			L_Elbow			R_Wrist			L_Wrist			R_Asis			L_Asis			Sacral			Thoracic			Sternum			R_Thigh_Lateral			R_Knee_Lateral			R_Shank_Lateral			R_Ankle_Lateral			R_Heel			R_Toe			L_Thigh_Lateral			L_Knee_Lateral			L_Shank_Lateral			L_Ankle_Lateral			L_Heel			L_Toe		
		X1	Y1	Z1	X2	Y2	Z2	X3	Y3	Z3	X4	Y4	Z4	X5	Y5	Z5	X6	Y6	Z6	X7	Y7	Z7	X8	Y8	Z8	X9	Y9	Z9	X10	Y10	Z10	X11	Y11	Z11	X12	Y12	Z12	X13	Y13	Z13	X14	Y14	Z14	X15	Y15	Z15	X16	Y16	Z16	X17	Y17	Z17	X18	Y18	Z18	X19	Y19	Z19	X20	Y20	Z20	X21	Y21	Z21	X22	Y22	Z22	X23	Y23	Z23	X24	Y24	Z24	X25	Y25	Z25
112	1.11000000	-125.423737	1252.352417	-179.228622	-179.998825	1249.647095	-557.008057	-218.792023	1332.666504	-357.767883	-101.139969	1245.556885	-376.467224	-92.488106	973.991577	-89.244415	-264.695282	969.739746	-599.443665	62.614216	813.987518	-121.146030	-149.712891	770.705627	-634.668762	-101.431442	864.474854	-236.826752	-88.508446	856.536682	-463.454285	-286.579285	912.986389	-375.183899	-279.304443	1130.710571	-357.252258	-64.902466	1050.917603	-365.638000	-232.329941	528.475769	-179.190704	-266.717865	438.993652	-239.743301	-325.248932	259.197083	-209.824814	-391.413727	67.945854	-295.809174	-435.517426	74.602562	-343.441132	-261.376770	36.677055	-324.248474	-53.894814	521.891052	-551.273193	-14.763825	439.774750	-493.203857	14.388605	262.359253	-551.970825	66.816742	61.908573	-446.261047	38.715115	44.696152	-390.504486	191.694000	81.669655	-438.268555
113	1.12000000	-113.089645	1251.257935	-180.047348	-168.596359	1248.274292	-557.632874	-206.856628	1331.528931	-358.358368	-89.225883	1244.129272	-377.063538	-78.685837	973.256470	-89.856010	-254.639435	968.725159	-599.606750	77.454859	814.578369	-122.677925	-141.036995	769.106995	-635.935577	-90.031120	863.498169	-236.438721	-75.760056	855.358643	-463.253937	-274.544830	911.514404	-376.128021	-267.477539	1129.623291	-357.714966	-53.235111	1049.443237	-365.959351	-223.284637	528.093262	-178.825104	-257.932617	438.660217	-239.327911	-320.097534	259.822021	-209.294571	-390.515686	69.932404	-295.181671	-434.616608	77.669937	-342.639130	-261.072357	36.467819	-324.192993	-44.078060	519.294739	-550.852722	-4.127268	437.624695	-492.353912	29.906490	261.022827	-551.200195	86.911369	61.114906	-445.504486	58.679691	43.176308	-390.056946	211.511932	83.732841	-436.077118
114	1.13000000	-100.734314	1250.316406	-180.919098	-157.057755	1247.084351	-558.332275	-194.866119	1330.514771	-359.023560	-77.222046	1242.898438	-377.742645	-65.183060	972.632019	-90.522491	-244.287186	967.851196	-599.862793	91.816975	815.077209	-124.085213	-131.989407	767.696136	-637.237030	-78.412567	862.620056	-236.147781	-62.890015	854.370667	-463.125153	-262.330688	910.246887	-377.044983	-255.523987	1128.637329	-358.247070	-41.379204	1048.195312	-366.407715	-213.665405	527.727234	-178.460251	-248.436386	438.261658	-238.834244	-314.413666	260.576019	-208.678040	-389.366364	72.208229	-294.409271	-433.411316	81.189301	-341.664825	-260.766113	36.184269	-324.178741	-33.755924	517.113403	-550.368958	6.652546	435.682831	-491.476746	44.516899	259.758301	-550.265686	104.028992	60.424633	-444.529419	75.487190	41.996094	-389.445404	228.313293	84.857353	-433.484253
115	1.14000000	-88.366562	1249.546021	-181.838409	-145.379639	1246.091431	-559.103821	-182.824051	1329.639282	-359.762451	-65.133362	1241.885498	-378.502930	-52.000065	972.129578	-91.237900	-233.629807	967.129028	-600.213501	105.682735	815.482391	-125.354469	-122.558964	766.479919	-638.565430	-66.568932	861.843323	-235.966141	-49.909599	853.601562	-463.070923	-249.942139	909.199646	-377.908173	-243.447128	1127.766846	-358.843567	-29.331118	1047.198242	-366.982635	-203.426086	527.363098	-178.093475	-238.176300	437.785522	-238.255844	-308.156616	261.486755	-207.983902	-387.899811	74.827232	-293.519836	-431.790894	85.223785	-340.565704	-260.475525	35.816925	-324.221252	-22.874269	515.408630	-549.826660	17.572607	433.986969	-490.590790	58.163113	258.546051	-549.190063	118.263680	59.736687	-443.355408	89.245987	41.061512	-388.674805	242.238770	84.943451	-430.571289
